<?xml version="1.0" encoding="UTF-8"?>
<svg id="Camada_2" data-name="Camada 2" xmlns="http://www.w3.org/2000/svg" xmlns:xlink="http://www.w3.org/1999/xlink" viewBox="0 0 283.46 16.84">
  <defs>
    <style>
      .cls-1 {
        fill: url(#Gradiente_sem_nome_69);
      }

      .cls-2 {
        fill: #2c2c2c;
      }
    </style>
    <linearGradient id="Gradiente_sem_nome_69" data-name="Gradiente sem nome 69" x1="173.35" y1="8.38" x2="229.64" y2="8.38" gradientUnits="userSpaceOnUse">
      <stop offset="0" stop-color="#284a99"/>
      <stop offset="1" stop-color="#38beef"/>
    </linearGradient>
  </defs>
  <g id="Camada_1-2" data-name="Camada 1">
    <g>
      <path class="cls-1" d="m220.19.03h-37.39c-3.33,0-5.76.74-7.23,2.19-1.48,1.45-2.22,3.52-2.22,6.14s.74,4.75,2.21,6.2c1.46,1.44,3.9,2.17,7.24,2.17h37.39c3.34,0,5.78-.73,7.24-2.17,1.47-1.45,2.21-3.53,2.21-6.2s-.75-4.69-2.22-6.14c-1.47-1.45-3.91-2.19-7.23-2.19Zm-1.53,8.33c0,1.32-.21,2.41-.62,3.24-.41.81-1.08,1.41-2.04,1.83-.98.42-2.36.64-4.08.64h-29.11c-1.72,0-3.1-.21-4.08-.64-.97-.42-1.64-1.02-2.05-1.83-.41-.83-.62-1.92-.62-3.24s.21-2.41.62-3.24c.4-.8,1.09-1.41,2.04-1.82.98-.42,2.35-.63,4.08-.63h29.11c1.73,0,3.1.21,4.08.63.95.4,1.64,1.01,2.04,1.81.41.83.62,1.92.62,3.24Zm5.61,5.07c-.98.42-2.36.64-4.08.64h-.58c1.17-1.41,1.76-3.33,1.76-5.71s-.61-4.27-1.8-5.69h.63c1.73,0,3.1.21,4.08.63.95.4,1.64,1.01,2.04,1.81.41.83.62,1.92.62,3.24s-.21,2.41-.62,3.24c-.41.81-1.08,1.41-2.04,1.83Z"/>
      <g>
        <g>
          <polygon class="cls-2" points="154.44 10.68 147.48 .03 145.25 .03 145.25 16.68 147.99 16.68 147.99 5.79 153.55 14.2 155.35 14.25 160.76 5.82 160.76 16.68 163.44 16.68 163.44 .03 161.3 .03 154.44 10.68"/>
          <polygon class="cls-2" points="247.76 13.03 240.3 .03 237.16 .03 246.84 16.79 248.68 16.84 258.11 .03 255.09 .03 247.76 13.03"/>
          <polygon class="cls-2" points="283.46 2.71 283.46 .05 267.78 .05 267.78 16.68 283.44 16.68 283.44 14.02 270.49 14.02 270.49 9.4 280.38 9.4 280.38 6.74 270.49 6.74 270.49 2.71 283.46 2.71"/>
        </g>
        <path class="cls-2" d="m9.36,0C6.06,0,3.65.73,2.2,2.16.74,3.6,0,5.64,0,8.24s.74,4.71,2.19,6.14c1.45,1.42,3.86,2.15,7.18,2.15s5.69-.73,7.16-2.17c1.46-1.44,2.21-3.5,2.21-6.12s-.73-4.68-2.17-6.1C15.11.72,12.69,0,9.36,0Zm4.07,13.32c-.99.42-2.36.64-4.07.64s-3.09-.21-4.08-.64c-.96-.41-1.65-1.03-2.05-1.84-.41-.82-.62-1.91-.62-3.24s.21-2.42.62-3.24c.4-.8,1.09-1.42,2.05-1.82.99-.42,2.36-.63,4.08-.63s3.09.21,4.08.63c.96.41,1.65,1.02,2.05,1.82.41.83.62,1.92.62,3.24s-.21,2.4-.62,3.23c-.41.82-1.08,1.43-2.05,1.85Zm31.18-3.2c.11.44.17.95.17,1.55v.34c0,1.71-.61,2.9-1.82,3.55-1.15.61-2.85.93-5.03.93h-2.4c-1.39,0-2.58-.11-3.53-.32-.97-.22-1.79-.72-2.41-1.5-.39-.55-.63-1.09-.72-1.63l-.14-1.02h2.65l.02.25c0,.08.01.15.02.21.1.63.43,1,1.04,1.18.68.19,1.63.29,2.83.29h3.15c1.1,0,2-.1,2.66-.31.58-.18.91-.56,1.01-1.16.03-.14.04-.37.04-.65v-.34c0-.61-.16-1.04-.48-1.31-.36-.29-.8-.47-1.35-.54-.57-.07-1.39-.11-2.43-.11h-2.42c-1.42,0-2.62-.1-3.57-.31-1-.21-1.81-.72-2.42-1.5-.34-.42-.57-.86-.67-1.33-.1-.44-.16-.97-.16-1.57v-.34c0-1.71.61-2.9,1.8-3.55,1.14-.62,2.83-.93,5.01-.93h2.37c1.4,0,2.59.11,3.56.32,1,.22,1.82.73,2.43,1.51.35.46.6,1.01.73,1.64.04.17.06.41.08.73v.28s-2.6,0-2.6,0l-.02-.24s-.01-.09-.02-.13v-.09c-.13-.6-.47-.99-1.07-1.17-.66-.2-1.6-.3-2.78-.3h-3c-.92,0-1.71.06-2.33.18-.58.1-1.01.33-1.27.66-.1.15-.18.33-.21.53-.05.21-.07.47-.07.79v.34c0,.61.16,1.03.49,1.3.36.28.8.46,1.33.52.62.07,1.43.11,2.43.11h2.42c1.43,0,2.62.11,3.56.31,1,.23,1.81.74,2.42,1.51.35.43.58.88.7,1.33ZM54.71,0h16.71v2.57h-7.06v13.92h-2.62l.02-13.92h-7.06V0Zm26.64.02h15.52v2.57h-12.91v4.08h9.84v2.57h-9.84v4.67h12.89v2.57h-15.5V.02Zm42.05-.02v16.49h-2.01l-11.97-12.25-.02,12.25h-2.59V0h1.99l.08.08,11.91,12.17V0h2.62Z"/>
      </g>
    </g>
  </g>
</svg>